<svg width="36" height="36" viewBox="0 0 36 36" fill="none" xmlns="http://www.w3.org/2000/svg">
<path d="M19.5891 17.9999L24.3844 13.2046C24.8203 12.7687 24.8203 12.0515 24.3844 11.6155C23.9484 11.1796 23.2313 11.1796 22.7953 11.6155L18 16.4108L13.2047 11.6155C12.7688 11.1796 12.0516 11.1796 11.6156 11.6155C11.3977 11.8335 11.2852 12.1218 11.2852 12.4101C11.2852 12.6983 11.3977 12.9866 11.6156 13.2046L16.4109 17.9999L11.6156 22.7952C11.3977 23.0132 11.2852 23.3015 11.2852 23.5897C11.2852 23.878 11.3977 24.1663 11.6156 24.3843C12.0516 24.8202 12.7688 24.8202 13.2047 24.3843L18 19.589L22.7953 24.3843C23.2313 24.8202 23.9484 24.8202 24.3844 24.3843C24.8203 23.9483 24.8203 23.2312 24.3844 22.7952L19.5891 17.9999Z" fill="#13005A"/>
</svg>
